<?xml version="1.0" encoding="iso-8859-1"?>
<!-- Uploaded to: SVG Repo, www.svgrepo.com, Generator: SVG Repo Mixer Tools -->
<svg height="800px" width="800px" version="1.1" id="Layer_1" xmlns="http://www.w3.org/2000/svg" xmlns:xlink="http://www.w3.org/1999/xlink" 
	 viewBox="0 0 512 512" xml:space="preserve">
<path style="fill:#538489;" d="M356.233,406.775l-7.117-2.662l-3.465,6.758c-13.397,26.103-31.061,48.247-51.055,64.051
	l7.117,15.027c35.857-7.859,69.308-25.045,96.734-49.698l8.465-7.603l-9.677-5.999C384.981,419.055,371.183,412.365,356.233,406.775
	z"/>
<path style="fill:#8CC0C5;" d="M375.074,269.15l0.333,8.183h94.029l-0.555-9.062c-1.698-27.435-8.704-54.033-20.804-79.036
	l-6.861-14.157l-8.132,13.466c-5.086,8.422-10.94,15.974-17.314,22.374c-0.41,0.401-41.788,41.762-41.788,41.762l0.316,3.934
	C374.63,260.753,374.903,264.926,375.074,269.15z"/>
<path style="fill:#A9D0D3;" d="M156.535,155.051l7.049,2.611l3.473-6.665c13.329-25.54,30.737-47.232,50.347-62.72l-7.117-15.027
	c-35.302,7.74-68.343,24.567-95.548,48.674l-8.644,7.654l9.856,6.016C128.247,143.095,141.909,149.641,156.535,155.051z"/>
<path style="fill:#6FB0B6;" d="M337.203,391.817l7.407,2.099l2.85-7.159c11.273-28.39,17.707-59.341,19.098-91.989l0.384-8.9H340.77
	l-8.806,8.806l-8.806-8.806h-62.891v94.874l8.192,0.324C292.207,382.02,315.332,385.63,337.203,391.817z"/>
<path style="fill:#538489;" d="M336.273,411.085l5.103-9.523l-10.453-2.756c-19.729-5.197-40.499-8.303-61.756-9.207l-8.9-0.384
	v97.681l12.757-7.279C298.044,465.365,319.906,441.66,336.273,411.085z"/>
<polygon style="fill:#8CC0C5;" points="260.267,222.993 260.267,277.333 314.615,277.333 "/>
<path style="fill:#6FB0B6;" d="M375.074,294.059c-1.331,33.587-7.817,65.357-19.268,94.43l-3.149,8.004l8.021,3.089
	c16.503,6.357,31.77,14.114,45.372,23.074l6.246,4.105l4.89-5.649c30.899-35.661,48.777-79.292,51.678-126.182l0.555-9.062h-94.037
	L375.074,294.059z"/>
<path style="fill:#538489;" d="M181.069,398.797l-10.445,2.756l5.094,9.523c16.367,30.583,38.238,54.289,63.258,68.548l12.757,7.279
	v-97.707l-8.9,0.384C221.568,390.494,200.781,393.6,181.069,398.797z"/>
<path style="fill:#A9D0D3;" d="M214.46,99.447l-15.718,18.714c-8.422,10.035-15.872,20.941-22.153,32.418l-5.239,9.6l10.59,2.748
	c8.218,2.133,17.041,3.951,26.223,5.402l12.937,2.039l-3.354-12.646c-2.927-11.025-4.25-22.409-3.942-33.835L214.46,99.447z"/>
<path style="fill:#8CC0C5;" d="M227.627,183.074l-2.108-3.951l-4.446-0.512c-16.068-1.826-31.428-4.779-45.662-8.772l-7.347-2.065
	l-2.867,7.074c-11.674,28.791-18.313,60.279-19.746,93.577l-0.393,8.909h106.675v-62.899l-3.439-3.422
	C240.085,202.795,233.131,193.391,227.627,183.074z"/>
<path style="fill:#6FB0B6;" d="M145.442,294.767c1.399,32.64,7.817,63.573,19.081,91.947l2.842,7.159l7.415-2.099
	c21.786-6.17,44.919-9.779,68.762-10.735l8.192-0.324v-94.848H145.058L145.442,294.767z"/>
<path style="fill:#538489;" d="M166.306,410.786l-3.465-6.758l-7.117,2.662c-14.199,5.316-27.938,12.066-40.841,20.07l-9.677,5.999
	l8.474,7.603c27.409,24.593,60.809,41.745,96.606,49.596l7.117-15.027C197.385,459.102,179.721,436.924,166.306,410.786z"/>
<path style="fill:#8CC0C5;" d="M136.926,269.141c1.357-34.227,8.021-66.483,19.797-95.881l3.217-8.047l-8.09-3.098
	c-16.247-6.212-31.377-13.858-44.971-22.707l-6.187-4.028l-4.873,5.547c-31.531,35.866-49.749,79.898-52.693,127.343l-0.563,9.062
	h94.037L136.926,269.141z"/>
<path style="fill:#6FB0B6;" d="M151.287,399.488l8.013-3.089l-3.14-7.996c-11.435-29.065-17.903-60.8-19.234-94.336l-0.324-8.192
	H42.556l0.563,9.062c2.91,46.933,20.804,90.59,51.738,126.251l4.898,5.649l6.238-4.105
	C120.081,413.449,135.322,405.632,151.287,399.488z"/>
<path style="fill:#FEDEA1;" d="M332.8,178.227c28.587,0,51.849-23.262,51.849-51.849S361.387,74.53,332.8,74.53
	c-28.587,0-51.849,23.262-51.849,51.849C280.951,154.974,304.213,178.227,332.8,178.227z"/>
<path style="fill:#FF877F;" d="M414.302,44.885c-21.777-21.769-50.714-33.758-81.502-33.758s-59.725,11.989-81.502,33.758
	c-44.937,44.937-44.937,118.059,0,162.995l81.502,81.365c0,0,81.084-80.947,81.502-81.365
	C459.23,162.944,459.23,89.822,414.302,44.885z M332.8,74.522c28.595,0,51.857,23.262,51.857,51.857s-23.262,51.866-51.857,51.866
	s-51.857-23.262-51.857-51.866S304.205,74.522,332.8,74.522z"/>
<g>
	<path style="fill:#573A32;" d="M331.964,191.181c35.26,0,63.957-28.749,63.957-64.06s-28.698-64.06-63.957-64.06
		s-63.949,28.74-63.949,64.06S296.704,191.181,331.964,191.181z M331.964,88.004c21.53,0,39.049,17.545,39.049,39.125
		s-17.519,39.125-39.049,39.125c-21.53,0-39.049-17.545-39.049-39.125S310.434,88.004,331.964,88.004z"/>
	<path style="fill:#573A32;" d="M421.726,37.231C397.73,13.218,365.85,0,331.964,0s-65.758,13.218-89.754,37.231
		c-4.898,4.907-9.165,10.189-13.09,15.642C114.551,66.193,25.6,163.456,25.6,281.6C25.6,408.849,128.751,512,256,512
		s230.4-103.151,230.4-230.4c0-43.264-12.049-83.661-32.794-118.246C466.364,120.09,455.74,71.322,421.726,37.231z M212.113,81.587
		c-20.762,16.401-38.69,38.758-52.617,65.468c-14.097-5.214-27.213-11.494-39.091-18.748
		C146.074,105.574,177.459,89.182,212.113,81.587z M209.502,159.906c-8.687-1.374-17.186-3.089-25.412-5.231
		c6.255-11.46,13.414-21.76,21.188-31.019C204.945,135.842,206.353,148.045,209.502,159.906z M102.221,146.56
		c14.08,9.165,29.696,17.067,46.583,23.526c-11.827,29.517-18.987,63.044-20.403,98.714H51.644
		C54.537,222.114,73.139,179.635,102.221,146.56z M51.644,294.4h76.757c1.391,35.038,8.354,67.985,19.823,97.126
		c-17.067,6.571-32.725,14.729-46.908,24.064C72.755,382.669,54.502,340.591,51.644,294.4z M119.381,434.005
		c11.972-7.424,25.079-13.986,39.339-19.328c14.037,27.358,32.256,50.227,53.402,66.935
		C176.998,473.916,145.237,457.207,119.381,434.005z M243.2,472.209c-23.808-13.577-44.493-36.258-59.955-65.161
		c18.825-4.966,38.938-8.038,59.955-8.943V472.209z M243.2,372.523c-24.858,0.998-48.623,4.787-70.741,11.042
		c-10.547-26.564-17.101-56.841-18.483-89.165H243.2V372.523z M243.2,268.8h-89.233c1.408-32.973,8.209-63.795,19.132-90.743
		c14.967,4.198,30.72,7.185,47.002,9.028c5.743,10.761,13.099,20.881,22.144,29.952c0.06,0.06,0.41,0.41,0.956,0.947L243.2,268.8
		L243.2,268.8z M259.831,54.878c19.243-19.311,44.86-29.935,72.132-29.935s52.898,10.624,72.149,29.935
		c39.782,39.842,39.782,104.653-0.026,144.521c-0.469,0.469-13.79,13.815-29.815,29.815l-42.3,42.334l-49.101-49.126
		c-12.834-12.817-22.613-22.596-23.031-23.049C220.049,159.522,220.049,94.72,259.831,54.878z M319.625,294.4
		c5.367,5.367,8.747,8.747,8.747,8.747l3.593,3.584l3.593-3.584c0,0,3.379-3.379,8.747-8.747h13.73
		c-1.382,32.35-7.945,62.626-18.5,89.207c-22.127-6.255-45.867-10.069-70.724-11.068V294.4H319.625z M268.8,268.8v-25.216
		c7.97,7.97,16.819,16.819,25.225,25.216H268.8z M268.8,472.209v-74.086c21.018,0.905,41.122,3.977,59.955,8.934
		C313.284,435.96,292.608,458.641,268.8,472.209z M299.887,481.613c21.12-16.683,39.33-39.526,53.359-66.85
		c14.251,5.333,27.537,11.716,39.501,19.132C366.865,457.156,335.053,473.907,299.887,481.613z M410.752,415.522
		c-14.174-9.327-29.952-17.34-47.002-23.902c11.486-29.158,18.458-62.14,19.857-97.22h76.757
		C457.498,340.565,439.27,382.609,410.752,415.522z M460.356,268.8h-76.757c-0.171-4.335-0.452-8.627-0.802-12.894
		c19.797-19.789,38.417-38.4,38.921-38.895c7.364-7.381,13.5-15.514,18.671-24.064C451.627,216.158,458.684,241.741,460.356,268.8z"
		/>
</g>
</svg>